<svg xmlns="http://www.w3.org/2000/svg" xmlns:svg="http://www.w3.org/2000/svg" id="svg2" width="512" height="512" version="1.1" viewBox="0 0 512 512"><defs id="defs4"><linearGradient id="linearGradient5"><stop id="stop4205" offset="0" stop-color="#fff" stop-opacity="1"/></linearGradient></defs><metadata id="metadata7"/><g id="layer1" fill="#fff" fill-opacity="1" transform="translate(0,-540.36219)"><path id="rect3350" fill="#fff" fill-opacity="1" fill-rule="evenodd" stroke="#000" stroke-dasharray="none" stroke-linecap="butt" stroke-linejoin="miter" stroke-miterlimit="4" stroke-opacity="0" stroke-width=".383" d="m 51.26741,540.4888 c -28.296248,0 -51.07572198,21.64049 -51.07572198,48.52099 l 0,220.37577 c 0,26.88054 22.77947398,48.521 51.07572198,48.521 l 58.63304,0 233.81605,193.84304 -75.71646,-193.84304 192.73255,0 c 28.29626,0 51.07572,-21.64046 51.07572,-48.521 l 0,-220.37577 c 0,-26.8805 -22.77946,-48.52099 -51.07572,-48.52099 z m 13.880268,41.7133 381.704642,0 c 13.93233,0 25.14853,8.97537 25.14853,20.12354 l 0,13.0919 c 0,11.14817 -11.2162,20.12093 -25.14853,20.12093 l -381.704642,0 c -13.932322,0 -25.14854,-8.97276 -25.14854,-20.12093 l 0,-13.0919 c 0,-11.14817 11.216218,-20.12354 25.14854,-20.12354 z m 0,92.7683 381.704642,0 c 13.93233,0 25.14853,8.97536 25.14853,20.12353 l 0,13.08927 c 0,11.14819 -11.2162,20.12356 -25.14853,20.12356 l -381.704642,0 c -13.932322,0 -25.14854,-8.97537 -25.14854,-20.12356 l 0,-13.08927 c 0,-11.14817 11.216218,-20.12353 25.14854,-20.12353 z m 0,92.00522 137.894142,0 c 13.93234,0 25.14855,12.24637 25.14855,23.39454 l 0,9.81826 c 0,11.14819 -11.21621,20.12355 -25.14855,20.12355 l -137.894142,0 c -13.932322,0 -25.14854,-8.97536 -25.14854,-20.12355 l 0,-9.81826 c 0,-11.14817 11.216218,-23.39454 25.14854,-23.39454 z"/></g></svg>